<svg xmlns="http://www.w3.org/2000/svg" width="206" height="56" viewBox="0 0 206 56">
  <g>
    <g>
      <g>
        <path d="M137.66,31.67q-4.18,4.21-7.22,4.54a6.55,6.55,0,0,1-5.54-2.16,6.27,6.27,0,0,1-2.18-5l-2.07-.1a12.59,12.59,0,0,0,11.57,9.66,11.52,11.52,0,0,0,8.72-3.8,12.31,12.31,0,0,0,2.84-4.25l-4.65-.43Q138.47,30.88,137.66,31.67Z" style="fill: #1a1311"/>
        <path d="M141,17.89a11.72,11.72,0,0,0-16.56-.21l-.3.31a12.07,12.07,0,0,0-3.65,6.66l3.73.23a23.48,23.48,0,0,1,3-3.59c2.78-2.78,5.21-4.32,7.28-4.6a7.25,7.25,0,0,1,7.73,6.73,8.51,8.51,0,0,1,0,1,7.67,7.67,0,0,1-.66,2.1l2.95.37a5.91,5.91,0,0,0,0-.6A11.49,11.49,0,0,0,141,17.89Z" style="fill: #1a1311"/>
      </g>
      <path d="M107.42,51.62A4.38,4.38,0,1,1,103,47.24a4.38,4.38,0,0,1,4.38,4.38Z" style="fill: #d6006c"/>
      <path d="M51,19.45,62.28,9.31q3.91-3.51,3.92-5c0-1.5-1.31-2.3-3.92-2.37V.68H76.2V1.94a9.37,9.37,0,0,0-3.46.73,13.42,13.42,0,0,0-3.17,1.85q-1.45,1.14-5.36,4.83l-6.7,6.2L71.33,29.48a48,48,0,0,0,6.35,5.83,7.94,7.94,0,0,0,4.18,1v1.25H62.66V36.31h.74c2.06,0,3.36-.18,3.86-.53A1.52,1.52,0,0,0,68,34.51c0-.5-1.31-2.45-3.94-5.1L53.68,18.91,51,21.21V28a45.19,45.19,0,0,0,.21,5.7,2.93,2.93,0,0,0,1.1,2,6.26,6.26,0,0,0,3.4.66h.71v1.25H39.86V36.31H41a6.64,6.64,0,0,0,3.28-.6,2.9,2.9,0,0,0,1.18-1.88,37.36,37.36,0,0,0,.25-5.89V9.87A34.42,34.42,0,0,0,45.42,4,2.36,2.36,0,0,0,44.3,2.36a10.73,10.73,0,0,0-3.94-.44V.66H56.71V1.92H56a9.19,9.19,0,0,0-3.57.44A2.3,2.3,0,0,0,51.35,4a33.41,33.41,0,0,0-.29,5.83Z" style="fill: #d6006c"/>
      <path d="M111,38.47H109.7l-6.64-17.69-6.8,17.69H95.12L88.26,20.76a14.13,14.13,0,0,0-1.73-3.61,3.17,3.17,0,0,0-2.28-.6V15.29H94.42v1.26a5.84,5.84,0,0,0-2.35.31,1.1,1.1,0,0,0-.62,1.08,13.67,13.67,0,0,0,1.06,3.18l4.54,12L104,15.3H105l6.7,17.8,4.9-12.69a10.82,10.82,0,0,0,.8-2.43c0-.89-.93-1.37-2.76-1.45V15.28h7.24v1.25a4.25,4.25,0,0,0-2.07.5,4,4,0,0,0-1.37,2.15l-.6,1.56Z" style="fill: #1a1311"/>
      <path d="M153.19,20.09a9.24,9.24,0,0,1,3-4.05,6.65,6.65,0,0,1,4.07-1.63,3.49,3.49,0,0,1,2.84,1.12,3.37,3.37,0,0,1,1,2.28,1.92,1.92,0,0,1-.52,1.35,1.65,1.65,0,0,1-1.29.58c-.91,0-1.6-.67-2.07-2-.32-.92-.81-1.37-1.46-1.36A4.5,4.5,0,0,0,156,18a7.4,7.4,0,0,0-2.09,3.3,18.72,18.72,0,0,0-.46,4.72V30c0,2.38,0,3.89.1,4.5a1.82,1.82,0,0,0,.77,1.41,4.46,4.46,0,0,0,2.43.49h.75V37.6H145.64V36.35h.57a4.72,4.72,0,0,0,2.34-.45,1.74,1.74,0,0,0,.83-1.27,42.78,42.78,0,0,0,.14-4.67V23.64c0-2.39,0-3.9-.1-4.5a1.92,1.92,0,0,0-.77-1.41,4.41,4.41,0,0,0-2.44-.5h-.57V16a38.44,38.44,0,0,0,6.68-1.6A19,19,0,0,1,153.19,20.09Z" style="fill: #1a1311"/>
      <path d="M183.08,17.65V8.94c0-2.37,0-3.86-.1-4.48a1.94,1.94,0,0,0-.77-1.41,4.31,4.31,0,0,0-2.42-.48h-.58V1.32A30.13,30.13,0,0,0,186.4.18H187V30.11a41.45,41.45,0,0,0,.13,4.73,1.63,1.63,0,0,0,.85,1.25,6,6,0,0,0,2.69.41v1.24a38.31,38.31,0,0,0-7,.71,18,18,0,0,1-.33-4,15,15,0,0,1-4.15,3,10.36,10.36,0,0,1-4.44,1A9.76,9.76,0,0,1,167.24,35a13.26,13.26,0,0,1,.08-17.24A10.22,10.22,0,0,1,175,14.37a11.23,11.23,0,0,1,4.28.81A12.62,12.62,0,0,1,183.08,17.65Zm0,1.59a13.91,13.91,0,0,0-3.61-2.32,9.27,9.27,0,0,0-3.63-.77,6.52,6.52,0,0,0-5.14,2.37c-1.38,1.59-2.06,4.16-2.06,7.73s.7,6.3,2.1,8A6.49,6.49,0,0,0,176,36.87a7.82,7.82,0,0,0,3.84-1A10.63,10.63,0,0,0,183.07,33Z" style="fill: #1a1311"/>
      <path d="M15.41,37.2V25.34h1.35q2.32,11.61,11,11.62a8,8,0,0,0,6-2.22,6.93,6.93,0,0,0,2.13-5A6.38,6.38,0,0,0,34,25.11c-1.23-1.24-3.55-2.57-6.85-4a53.5,53.5,0,0,1-6.7-3.32A10.19,10.19,0,0,1,17,14.06,9.86,9.86,0,0,1,15.68,9.2a8.68,8.68,0,0,1,2.74-6.57A9.69,9.69,0,0,1,25.34,0a12.69,12.69,0,0,1,4.4.76A11.13,11.13,0,0,1,34,3.92,5.74,5.74,0,0,0,35.39.68h1.2v9.66h-1.2a13,13,0,0,0-3.66-6.63A8.73,8.73,0,0,0,25.64,1.3a6,6,0,0,0-4.83,1.8A5.9,5.9,0,0,0,19.27,7a5.62,5.62,0,0,0,1.93,4.32,25.76,25.76,0,0,0,6.89,4A68.54,68.54,0,0,1,35,18.74a9.59,9.59,0,0,1,3.47,3.57,10.53,10.53,0,0,1,1.3,5.29,10.1,10.1,0,0,1-3.17,7.7,11.85,11.85,0,0,1-8.44,3,12.88,12.88,0,0,1-10.12-4.66,9.28,9.28,0,0,0-1.33,3.6Z" style="fill: #d6006c"/>
      <path d="M13.23,37.14Q6.75,39,.41,41.23q6.36-1.59,12.82-3Z" style="fill: #1a1311"/>
      <path d="M192.85,37.16v1.08q6.41,1.41,12.74,3Q199.26,39.07,192.85,37.16Z" style="fill: #1a1311"/>
    </g>
  </g>
</svg>
