<svg xmlns="http://www.w3.org/2000/svg" width="206" height="58" viewBox="0 0 206 58">
  <g>
    <g>
      <path d="M137.67,32.68q-4.18,4.2-7.22,4.53a6.51,6.51,0,0,1-5.53-2.16,6.67,6.67,0,0,1-2.19-5l-2.06-.1a12.57,12.57,0,0,0,11.56,9.64,11.49,11.49,0,0,0,8.74-3.8,12.33,12.33,0,0,0,2.83-4.25c-1.55-.15-3.1-.29-4.66-.42C138.7,31.62,138.21,32.14,137.67,32.68Z" style="fill: #fff"/>
      <path d="M141,18.88a11.45,11.45,0,0,0-8.4-3.52A11.59,11.59,0,0,0,124.18,19a12.19,12.19,0,0,0-3.66,6.66c1.25.07,2.49.14,3.72.23a24.35,24.35,0,0,1,3-3.61c2.79-2.78,5.21-4.31,7.28-4.6a7.22,7.22,0,0,1,7.71,6.7,6,6,0,0,1,0,1,7.67,7.67,0,0,1-.66,2.1l3,.37c0-.19,0-.39,0-.59A11.45,11.45,0,0,0,141,18.88Z" style="fill: #fff"/>
    </g>
    <path d="M107.42,52.63A4.38,4.38,0,1,1,103,48.24a4.38,4.38,0,0,1,4.38,4.39Z" style="fill: #fff"/>
    <path d="M51,20.45,62.28,10.31q3.91-3.53,3.92-5,0-2.26-3.92-2.38V1.67H76.21V2.93a9.36,9.36,0,0,0-3.45.73A13.06,13.06,0,0,0,69.6,5.52c-1,.76-2.77,2.37-5.37,4.82l-6.72,6.2L71.34,30.47a48.12,48.12,0,0,0,6.35,5.84,7.66,7.66,0,0,0,4.16,1v1.25H62.66V37.33h.74c2.06,0,3.35-.17,3.86-.52A1.52,1.52,0,0,0,68,35.53q0-1.14-4-5.09L53.66,19.94,51,22.25V29a47.24,47.24,0,0,0,.22,5.7,3,3,0,0,0,1.1,2,6,6,0,0,0,3.39.65h.71v1.25H39.83V37.33H41a6.55,6.55,0,0,0,3.29-.6,2.84,2.84,0,0,0,1.17-1.87A39.92,39.92,0,0,0,45.68,29V10.88a34.42,34.42,0,0,0-.29-5.83,2.33,2.33,0,0,0-1.12-1.69,11,11,0,0,0-4-.44V1.67H56.68V2.93H56a8.84,8.84,0,0,0-3.57.45,2.34,2.34,0,0,0-1.12,1.67A33.41,33.41,0,0,0,51,10.88Z" style="fill: #fff"/>
    <path d="M111,39.48h-1.25l-6.64-17.7-6.8,17.7H95.12L88.27,21.76a14.73,14.73,0,0,0-1.74-3.62,3.16,3.16,0,0,0-2.28-.6V16.29H94.42v1.25a5.87,5.87,0,0,0-2.35.31,1.09,1.09,0,0,0-.62,1.08,13.9,13.9,0,0,0,1.06,3.19l4.54,12L104,16.29H105l6.7,17.79,4.91-12.68a11.45,11.45,0,0,0,.8-2.42c0-.89-.93-1.37-2.76-1.44V16.29h7.25v1.25a3.89,3.89,0,0,0-2.06.5,4.24,4.24,0,0,0-1.38,2.14l-.6,1.57Z" style="fill: #fff"/>
    <path d="M153.19,21.08a9.39,9.39,0,0,1,3-4.06,6.6,6.6,0,0,1,4.07-1.62,3.62,3.62,0,0,1,2.83,1.11,3.35,3.35,0,0,1,1,2.28,2,2,0,0,1-.52,1.36,1.75,1.75,0,0,1-1.3.58c-.9,0-1.6-.67-2.07-2-.33-.91-.82-1.36-1.48-1.36a4.56,4.56,0,0,0-2.8,1.59,7.38,7.38,0,0,0-2.09,3.3,18.72,18.72,0,0,0-.46,4.72v4c0,2.39,0,3.88.1,4.5a1.87,1.87,0,0,0,.78,1.42,4.47,4.47,0,0,0,2.44.49h.76v1.25H145.64V37.33h.57a4.51,4.51,0,0,0,2.34-.45,1.76,1.76,0,0,0,.82-1.27,40.65,40.65,0,0,0,.14-4.68V24.64c0-2.39,0-3.9-.09-4.5a1.9,1.9,0,0,0-.78-1.41,4.2,4.2,0,0,0-2.43-.5h-.57V17a38.22,38.22,0,0,0,6.68-1.6A18.3,18.3,0,0,1,153.19,21.08Z" style="fill: #fff"/>
    <path d="M183.1,18.66V9.94c0-2.37,0-3.87-.1-4.49A1.86,1.86,0,0,0,182.23,4a4.24,4.24,0,0,0-2.42-.49h-.57V2.3a31.17,31.17,0,0,0,7.18-1.14H187v30a41.69,41.69,0,0,0,.13,4.74,1.66,1.66,0,0,0,.86,1.25,6,6,0,0,0,2.68.41v1.25a38.29,38.29,0,0,0-7,.71,17.6,17.6,0,0,1-.32-4,14.94,14.94,0,0,1-4.16,3,10.15,10.15,0,0,1-4.43,1A9.75,9.75,0,0,1,167.28,36a13.26,13.26,0,0,1,.07-17.25A10.21,10.21,0,0,1,175,15.4a11.19,11.19,0,0,1,4.28.81A12.56,12.56,0,0,1,183.1,18.66Zm0,1.57a13.8,13.8,0,0,0-3.62-2.32,9.08,9.08,0,0,0-3.64-.78,6.52,6.52,0,0,0-5.13,2.37c-1.38,1.58-2.06,4.16-2.06,7.73s.7,6.31,2.11,8A6.52,6.52,0,0,0,176,37.85a7.87,7.87,0,0,0,3.85-1,10.67,10.67,0,0,0,3.26-2.94Z" style="fill: #fff"/>
    <path d="M15.41,38.2V26.34h1.36Q19.1,37.95,27.74,38a8,8,0,0,0,6-2.23,7.07,7.07,0,0,0,2.13-5A6.31,6.31,0,0,0,34,26.1a23.35,23.35,0,0,0-6.86-4,51,51,0,0,1-6.7-3.33,10.37,10.37,0,0,1-3.53-3.71,10,10,0,0,1-1.26-4.88,8.72,8.72,0,0,1,2.74-6.57A9.59,9.59,0,0,1,25.35,1a12.69,12.69,0,0,1,4.4.76A11.26,11.26,0,0,1,34,4.91a5.85,5.85,0,0,0,1.42-3.24h1.19v9.66H35.42a12.94,12.94,0,0,0-3.67-6.62,8.74,8.74,0,0,0-6.08-2.42,6.09,6.09,0,0,0-4.83,1.79A5.84,5.84,0,0,0,19.3,8a5.64,5.64,0,0,0,1.93,4.33,26.3,26.3,0,0,0,6.89,4,69.43,69.43,0,0,1,6.93,3.4,9.66,9.66,0,0,1,3.47,3.57,10.5,10.5,0,0,1,1.3,5.29,10,10,0,0,1-3.16,7.7,11.81,11.81,0,0,1-8.44,3A12.92,12.92,0,0,1,18.1,34.61a9.25,9.25,0,0,0-1.34,3.59Z" style="fill: #fff"/>
    <path d="M13.22,38.14Q6.76,40.06.4,42.24q6.38-1.6,12.82-3Z" style="fill: #fff"/>
    <path d="M192.86,38.17v1.07q6.4,1.41,12.74,3Q199.28,40.08,192.86,38.17Z" style="fill: #fff"/>
  </g>
</svg>
